<?xml version="1.0" encoding="UTF-8"?>
<svg id="Ebene_1" xmlns="http://www.w3.org/2000/svg" version="1.1" viewBox="0 0 322.484 143.397">
  <!-- Generator: Adobe Illustrator 29.1.0, SVG Export Plug-In . SVG Version: 2.1.0 Build 142)  -->
  <rect x="2.659" y="2" width="94.76" height="94.76" rx="22" ry="22" fill="none" stroke="#999" stroke-miterlimit="10" stroke-width="4"/>
  <g id="AnPCl9">
    <polygon points="51.947 24.383 51.947 42.532 85.14 42.532 85.14 61.875 51.947 61.875 51.947 80.024 14.938 52.204 51.947 24.383" fill="none" stroke="#999" stroke-miterlimit="10" stroke-width="4"/>
  </g>
  <rect x="225.723" y="2" width="94.76" height="94.76" rx="22" ry="22" fill="none" stroke="#999" stroke-miterlimit="10" stroke-width="4"/>
  <g id="AnPCl91" data-name="AnPCl9">
    <polygon points="271.196 80.024 271.196 61.875 238.002 61.875 238.002 42.532 271.196 42.532 271.196 24.383 308.205 52.204 271.196 80.024" fill="none" stroke="#999" stroke-miterlimit="10" stroke-width="4"/>
  </g>
  <rect x="114.191" y="2" width="94.76" height="94.76" rx="22" ry="22" fill="none" stroke="#999" stroke-miterlimit="10" stroke-width="4"/>
  <g id="AnPCl92" data-name="AnPCl9">
    <polygon points="189.392 54.111 171.243 54.111 171.243 87.305 151.9 87.305 151.9 54.111 133.751 54.111 161.571 17.102 189.392 54.111" fill="none" stroke="#999" stroke-miterlimit="10" stroke-width="4"/>
  </g>
  <text transform="translate(31.364 126.658)" fill="#999" font-family="Arial-BoldMT, Arial" font-size="20" font-weight="700"><tspan x="0" y="0">Left</tspan></text>
  <text transform="translate(134.901 126.658)" fill="#999" font-family="Arial-BoldMT, Arial" font-size="20" font-weight="700"><tspan x="0" y="0">Jump</tspan></text>
  <text transform="translate(243.274 126.658)" fill="#999" font-family="Arial-BoldMT, Arial" font-size="20" font-weight="700"><tspan x="0" y="0">Right</tspan></text>
</svg>