<?xml version="1.0" encoding="UTF-8"?>
<svg id="Ebene_1" xmlns="http://www.w3.org/2000/svg" version="1.1" viewBox="0 0 139.47 255.946">
  <!-- Generator: Adobe Illustrator 29.1.0, SVG Export Plug-In . SVG Version: 2.1.0 Build 142)  -->
  <g id="_x32_n2mCA">
    <g>
      <path d="M62.236,71.691c3.819-.058,7.667.065,11.486,0v133.822c-7.811.129-15.662-.171-23.472,0v-2.996c0-43.014-.012-86.044.014-129.064.067-.512.275-.987.687-1.311,1.115-.877,9.128-.419,11.285-.451Z" fill="#f65732"/>
      <path d="M77.217,71.192c2.555-.048,11.496-.909,11.986,1.747l.499,129.079c-.286.971-.492,1.954-.522,2.972-1.731.168-3.531-.133-5.26.003-.641.051-1.142.516-1.209.52-2.953.169-6.02-.049-8.989,0V71.691c.754-.013,2.146-.474,3.496-.499Z" fill="#e23629"/>
      <path d="M87.705,4.281c-.345,3.938-.399,11.588,0,15.479l-10.49-.003.003,51.434c-1.35.025-2.742.486-3.496.499-3.819.065-7.667-.058-11.486,0l.003-51.934-10.49.003c.4-3.888.345-11.544,0-15.479h35.956Z" fill="#3b7190"/>
      <path d="M121.664.286c.263.838,1.443,1.362,1.741,2.006.47,1.017.512,15.75.27,17.73-.206,1.684-1.123,2.257-1.511,3.732-10.385.098-20.792-.047-31.183-.029-2.272-.443-3.052-1.785-3.276-3.965-.399-3.892-.345-11.541,0-15.479.182-2.071.59-3.163,2.758-3.984,10.398.041,20.809-.095,31.201-.011Z" fill="#f65732"/>
      <path d="M33.77.286c1.494,1.148,2.272,1.747,2.507,3.734.398,3.361.412,12.657.002,16.002-.206,1.684-1.123,2.257-1.511,3.732-10.385.099-20.792-.048-31.183-.029-2.045-.37-3.053-1.69-3.286-3.705C-.034,17.145-.169,5.617.321,3.043c.211-1.108,1.226-1.789,1.998-2.496C12.783.128,23.302.206,33.77.286Z" fill="#f65732"/>
      <path d="M50.25,202.517v2.996c-3.902.085-5.653.525-8.989.999-4.541.645-19.015.531-23.723.002-8.734-.982-13.795-13.612-5.689-17.176,3.017-1.327,17.213-1.101,21.195-.824,8.948.624,14.618,5.566,17.207,14.004Z" fill="#feae08"/>
      <path d="M111.176,188.536c8.907,4.479,4.653,15.676-3.496,17.976-3.157.018-6.334-.012-9.491-.003.925,15.023-9.475,14.648-20.972,14.483-.666-.01-1.332.007-1.998,0l4.009-3.231c3.497-3.156,3.688-7.832,3.481-12.248.067-.004.568-.469,1.209-.52,1.729-.137,3.529.165,5.26-.003.03-1.018.236-2.001.522-2.972.86-2.921,1.92-5.449,4.009-7.726,4.917-5.357,10.693-5.436,17.465-5.756Z" fill="#feae08"/>
      <path d="M50.25,205.513c7.809-.171,15.66.129,23.472,0,2.97-.049,6.036.169,8.989,0,.206,4.417.015,9.092-3.481,12.248l-4.009,3.231c-4.381-.044-8.687-.051-12.984,0-11.48.135-21.728.391-20.975-14.481,3.336-.474,5.087-.913,8.989-.999Z" fill="#fed44f"/>
      <path d="M75.22,220.993c.666.007,1.332-.01,1.998,0l.025,33.231c.109.512-.361,1.722-.775,1.722h-13.484c-.414,0-.883-1.211-.775-1.722l.025-33.231c4.297-.051,8.604-.044,12.984,0Z" fill="#3b7190"/>
      <path d="M51.748,4.281c.345,3.935.4,11.592,0,15.479-.19,1.844-.854,3.442-2.853,3.888-3.25.725-10.359.071-14.126.107.388-1.475,1.305-2.048,1.511-3.732.409-3.345.395-12.641-.002-16.002-.235-1.987-1.014-2.587-2.507-3.734,4.097.032,11.66-.667,15.221.011,2.048.39,2.608,2.273,2.758,3.984Z" fill="#e23629"/>
      <path d="M122.163,23.755c.388-1.475,1.305-2.048,1.511-3.732.242-1.98.2-16.713-.27-17.73-.298-.645-1.478-1.168-1.741-2.006,3.974.032,11.266-.647,14.721.011,1.404.267,2.606,1.863,2.784,3.208.434,3.274.372,13.165-.016,16.516-.265,2.295-1.434,3.477-3.745,3.745-3.866.449-9.169-.049-13.245-.011Z" fill="#e23629"/>
      <path d="M107.681,206.512c8.149-2.3,12.402-13.497,3.496-17.976,3.663-.173,13.585-.546,16.484.745,7.175,3.197,3.759,14.425-2.866,16.617-4.06,1.343-12.443.588-17.114.614Z" fill="#f65732"/>
    </g>
  </g>
</svg>